<?xml version="1.0" encoding="UTF-8"?>
<svg version="1.1" xmlns="http://www.w3.org/2000/svg" width="358" height="355">
<path d="M0 0 C3.00489869 0.01828539 6.00791161 0.01141194 9.01269531 -0.02050781 C50.08443492 -0.45657809 88.49223089 12.24616964 119.7019043 39.70678711 C120.92586914 40.76639648 120.92586914 40.76639648 122.17456055 41.84741211 C155.86470272 71.53317922 179.36335277 112.49457991 183.7019043 157.70678711 C183.85112242 160.6733192 183.88878881 163.63525467 183.9050293 166.60522461 C183.91072937 167.4390567 183.91642944 168.27288879 183.92230225 169.13198853 C183.93169826 170.89177201 183.93826458 172.65157265 183.94213867 174.41137695 C183.95175195 177.04012846 183.9827884 179.66806524 184.0144043 182.29663086 C184.10708316 197.04280068 182.28170125 211.14119969 178.3894043 225.39428711 C178.17775635 226.17843994 177.9661084 226.96259277 177.74804688 227.77050781 C171.15980714 251.37936545 158.88881484 274.31387283 142.7019043 292.70678711 C141.98389648 293.53436523 141.26588867 294.36194336 140.52612305 295.21459961 C138.28908644 297.74964287 136.00875579 300.23516051 133.7019043 302.70678711 C132.90526367 303.56916992 132.10862305 304.43155273 131.2878418 305.32006836 C103.99236729 333.81126607 62.54297378 354.89864713 22.79165649 356.23916626 C17.95667409 356.33378978 13.12463717 356.35535543 8.28881836 356.33813477 C4.60238218 356.33183068 0.9191947 356.37884872 -2.7668457 356.42944336 C-41.21981306 356.63268671 -80.12296585 342.02859793 -109.2980957 316.70678711 C-110.08055664 316.03389648 -110.86301758 315.36100586 -111.66918945 314.66772461 C-140.07154816 289.67364895 -160.73640819 258.38776198 -170.1105957 221.45678711 C-170.40293091 220.30678223 -170.40293091 220.30678223 -170.70117188 219.13354492 C-174.00139743 205.32757711 -174.70497013 191.8324687 -174.6730957 177.70678711 C-174.67255188 176.79982086 -174.67200806 175.89285461 -174.67144775 174.95840454 C-174.63343564 161.16745718 -173.91242387 148.08118612 -170.2980957 134.70678711 C-169.98461182 133.46807861 -169.98461182 133.46807861 -169.66479492 132.2043457 C-161.83385735 101.59036578 -146.01331695 75.37872405 -124.2980957 52.70678711 C-123.82114258 52.20260254 -123.34418945 51.69841797 -122.8527832 51.17895508 C-102.56990134 29.81820617 -76.98481851 15.33412845 -49.2980957 5.70678711 C-48.61297913 5.46788757 -47.92786255 5.22898804 -47.22198486 4.98284912 C-31.772641 -0.15132156 -16.08721241 -0.10071812 0 0 Z " fill="#240B4C" transform="translate(174.298095703125,-0.706787109375)"/>
<path d="M0 0 C3.00489869 0.01828539 6.00791161 0.01141194 9.01269531 -0.02050781 C50.08443492 -0.45657809 88.49223089 12.24616964 119.7019043 39.70678711 C120.92586914 40.76639648 120.92586914 40.76639648 122.17456055 41.84741211 C155.86470272 71.53317922 179.36335277 112.49457991 183.7019043 157.70678711 C183.85112242 160.6733192 183.88878881 163.63525467 183.9050293 166.60522461 C183.91072937 167.4390567 183.91642944 168.27288879 183.92230225 169.13198853 C183.93169826 170.89177201 183.93826458 172.65157265 183.94213867 174.41137695 C183.95175195 177.04012846 183.9827884 179.66806524 184.0144043 182.29663086 C184.10708316 197.04280068 182.28170125 211.14119969 178.3894043 225.39428711 C178.17775635 226.17843994 177.9661084 226.96259277 177.74804688 227.77050781 C171.15980714 251.37936545 158.88881484 274.31387283 142.7019043 292.70678711 C141.98389648 293.53436523 141.26588867 294.36194336 140.52612305 295.21459961 C138.28908644 297.74964287 136.00875579 300.23516051 133.7019043 302.70678711 C132.90526367 303.56916992 132.10862305 304.43155273 131.2878418 305.32006836 C103.99236729 333.81126607 62.54297378 354.89864713 22.79165649 356.23916626 C17.95667409 356.33378978 13.12463717 356.35535543 8.28881836 356.33813477 C4.60238218 356.33183068 0.9191947 356.37884872 -2.7668457 356.42944336 C-41.21981306 356.63268671 -80.12296585 342.02859793 -109.2980957 316.70678711 C-110.08055664 316.03389648 -110.86301758 315.36100586 -111.66918945 314.66772461 C-140.07154816 289.67364895 -160.73640819 258.38776198 -170.1105957 221.45678711 C-170.40293091 220.30678223 -170.40293091 220.30678223 -170.70117188 219.13354492 C-174.00139743 205.32757711 -174.70497013 191.8324687 -174.6730957 177.70678711 C-174.67255188 176.79982086 -174.67200806 175.89285461 -174.67144775 174.95840454 C-174.63343564 161.16745718 -173.91242387 148.08118612 -170.2980957 134.70678711 C-169.98461182 133.46807861 -169.98461182 133.46807861 -169.66479492 132.2043457 C-161.83385735 101.59036578 -146.01331695 75.37872405 -124.2980957 52.70678711 C-123.82114258 52.20260254 -123.34418945 51.69841797 -122.8527832 51.17895508 C-102.56990134 29.81820617 -76.98481851 15.33412845 -49.2980957 5.70678711 C-48.61297913 5.46788757 -47.92786255 5.22898804 -47.22198486 4.98284912 C-31.772641 -0.15132156 -16.08721241 -0.10071812 0 0 Z M-96.2980957 49.70678711 C-96.85207031 50.15393066 -97.40604492 50.60107422 -97.97680664 51.06176758 C-131.71389391 78.46727099 -153.11713704 117.27188762 -157.8840332 160.62084961 C-159.8646767 182.27602475 -158.4434892 205.0773446 -151.2980957 225.70678711 C-151.06638672 226.40658691 -150.83467773 227.10638672 -150.59594727 227.82739258 C-143.4270036 249.38496899 -132.92790981 268.80991028 -117.3762207 285.47631836 C-115.46782679 287.52461333 -113.66184844 289.62714308 -111.8605957 291.76928711 C-89.72565289 316.91578677 -56.03410538 333.28893935 -23.2980957 338.70678711 C-22.10958008 338.91045898 -20.92106445 339.11413086 -19.6965332 339.32397461 C22.97968873 345.66891188 66.282665 334.57702932 101.0378418 309.30053711 C111.51238029 301.5212196 121.50833481 292.89878818 129.7019043 282.70678711 C130.45858398 281.78768555 131.21526367 280.86858398 131.99487305 279.92163086 C158.45340055 247.15528224 171.22190207 204.33518541 167.40161133 162.41137695 C162.24707072 117.79341076 140.60668241 76.98332218 105.24487305 48.93334961 C79.49351499 29.06583301 46.42582655 15.52318434 13.7019043 14.70678711 C12.94748047 14.68100586 12.19305664 14.65522461 11.41577148 14.62866211 C-27.67317786 13.39313625 -65.76548485 24.87412841 -96.2980957 49.70678711 Z " fill="#FDC103" transform="translate(174.298095703125,-0.706787109375)"/>
<path d="M0 0 C3.11705231 1.55852616 3.58981895 4.15168794 4.984375 7.296875 C5.42253036 8.27540184 5.42253036 8.27540184 5.86953735 9.2736969 C6.50274479 10.68844271 7.1332604 12.10439566 7.76141357 13.52139282 C9.43797777 17.30093389 11.13608585 21.07073013 12.8359375 24.83984375 C13.35596848 25.99367805 13.35596848 25.99367805 13.88650513 27.17082214 C17.25422528 34.61456328 20.79226393 41.97040628 24.375 49.3125 C28.58392902 57.95166787 32.70003991 66.61421203 36.59912109 75.39770508 C39.81655002 82.63729032 43.15265137 89.81973536 46.5 97 C50.72227553 106.06073972 54.89023761 115.14223954 58.97314453 124.26660156 C61.60879575 130.15090273 64.31592217 135.9966952 67.05859375 141.83203125 C68.59359061 145.11123085 70.09859394 148.40344247 71.59765625 151.69921875 C78.26906932 166.38624572 78.26906932 166.38624572 85.45092773 180.82788086 C87.69251401 185.18294524 89.2474801 189.32661359 91 194 C82.75 194 74.5 194 66 194 C64.80375 191.463125 63.6075 188.92625 62.375 186.3125 C61.83045166 185.15874878 61.83045166 185.15874878 61.27490234 183.98168945 C56.26073309 173.33668374 51.37330049 162.64113784 46.625 151.875 C41.88681811 141.17393347 37.06164992 130.51478365 32.1875 119.875 C31.85236389 119.14336639 31.51722778 118.41173279 31.17193604 117.65792847 C29.8078574 114.68031237 28.44363541 111.70276202 27.0791626 108.72532654 C21.019399 95.49874446 15.00127858 82.25320669 9 69 C8.52965332 67.96262695 8.05930664 66.92525391 7.57470703 65.85644531 C6.39951724 63.26043726 5.22953836 60.66218041 4.0625 58.0625 C3.73830078 57.34698975 3.41410156 56.63147949 3.08007812 55.89428711 C1 51.23247193 1 51.23247193 1 49 C0.34 49 -0.32 49 -1 49 C-1.33773437 50.14855469 -1.67546875 51.29710937 -2.0234375 52.48046875 C-4.28643072 59.26018471 -7.47152556 65.63676124 -10.55249023 72.07208252 C-12.36057198 75.84907185 -14.15224338 79.63383539 -15.9453125 83.41796875 C-16.29712585 84.15942139 -16.64893921 84.90087402 -17.01141357 85.66479492 C-21.1420842 94.38415716 -25.08150259 103.18338083 -29 112 C-16.79 112.33 -4.58 112.66 8 113 C7.34 114.65 6.68 116.3 6 118 C5.34786931 119.69259211 4.6995534 121.386658 4.0546875 123.08203125 C3.52294922 124.47905273 3.52294922 124.47905273 2.98046875 125.90429688 C2.61566406 126.86400391 2.25085938 127.82371094 1.875 128.8125 C1.50246094 129.79154297 1.12992187 130.77058594 0.74609375 131.77929688 C-0.16964813 134.18605439 -1.08487481 136.59300793 -2 139 C3.94 139.33 9.88 139.66 16 140 C16 140.66 16 141.32 16 142 C15.34 142 14.68 142 14 142 C13.78601563 142.65355469 13.57203125 143.30710938 13.3515625 143.98046875 C11.50192301 148.11275582 8.970179 151.61504675 6.375 155.3125 C0.21863497 164.1793586 -5.77642458 173.14494481 -11.70556641 182.1652832 C-12.35187012 183.14198975 -12.99817383 184.11869629 -13.6640625 185.125 C-14.23592285 185.99382812 -14.8077832 186.86265625 -15.39697266 187.7578125 C-16.80652504 189.72938258 -18.22631261 191.35841711 -20 193 C-18.61308893 184.63610184 -16.14031652 176.73076453 -13.5 168.6875 C-13.09652344 167.43904297 -12.69304687 166.19058594 -12.27734375 164.90429688 C-10.63997609 159.86520334 -8.9689925 154.92248124 -7 150 C-12.94 150 -18.88 150 -25 150 C-23.34370798 144.16354242 -21.74311757 139.48623513 -19 134 C-33.52 134 -48.04 134 -63 134 C-61 128 -61 128 -58 122 C-67.9 122 -77.8 122 -88 122 C-87 117 -87 117 -85 113 C-71.8 113 -58.6 113 -45 113 C-44.67 111.35 -44.34 109.7 -44 108 C-43.01 106.02 -42.02 104.04 -41 102 C-49.58 102 -58.16 102 -67 102 C-66.34 100.35 -65.68 98.7 -65 97 C-58.73 96.67 -52.46 96.34 -46 96 C-38.05695842 79.73520219 -30.13823297 63.47478612 -22.6628418 46.98852539 C-19.92337839 40.96378322 -17.07395257 35.01594523 -14.07421875 29.11694336 C-9.19651502 19.50330043 -4.62733898 9.73583932 0 0 Z " fill="#FAF9FA" transform="translate(178,44)"/>
<path d="M0 0 C1.5 1.375 1.5 1.375 3 3 C3 3.66 3 4.32 3 5 C3.88945312 5.11021484 3.88945312 5.11021484 4.796875 5.22265625 C7.78641372 6.27747576 8.5713006 7.78803756 10.25 10.4375 C10.77078125 11.24058594 11.2915625 12.04367188 11.828125 12.87109375 C13 15 13 15 13 17 C13.8971875 17.0928125 13.8971875 17.0928125 14.8125 17.1875 C17.8766807 18.32562426 18.40711699 20.21245473 20 23 C21.31963709 24.01800576 22.65009646 25.02248365 24 26 C24 26.66 24 27.32 24 28 C24.556875 28.22042969 25.11375 28.44085938 25.6875 28.66796875 C28.74152738 30.42712979 30.6633044 32.68015541 33 35.3125 C33.845625 36.25738281 34.69125 37.20226562 35.5625 38.17578125 C42 45.63461538 42 45.63461538 42 48 C42.5775 48.20625 43.155 48.4125 43.75 48.625 C46.80552637 50.49226612 48.07499277 53.01934365 50 56 C50.99 56.66 51.98 57.32 53 58 C53 58.66 53 59.32 53 60 C53.59296875 60.2578125 54.1859375 60.515625 54.796875 60.78125 C57.17660965 62.09769895 58.50978792 63.42580782 60.25 65.5 C60.77078125 66.1084375 61.2915625 66.716875 61.828125 67.34375 C63 69 63 69 63 71 C63.66 71 64.32 71 65 71 C67.53166944 74.40801655 68.6038481 76.77306333 68 81 C67.28416819 82.6919661 66.56305561 84.38253218 65.78515625 86.046875 C64.92384322 88.18944473 64.49050598 90.23272506 64.0625 92.5 C63.32682873 96.12971693 62.08009995 98.67944745 60.0859375 101.828125 C57.57606962 106.84786076 56.41039477 112.590986 55 118 C51.6748929 114.91918156 50.04058614 111.2971639 48.15625 107.23828125 C47.79072525 106.46406326 47.4252005 105.68984528 47.04859924 104.89216614 C45.85930273 102.36857762 44.67947562 99.8406916 43.5 97.3125 C42.68068661 95.56799486 41.86094173 93.82369231 41.04077148 92.07958984 C35.37249584 80.00888362 29.77340983 67.90687698 24.2578125 55.765625 C22.49191272 51.88283916 20.71574594 48.00478978 18.93847656 44.12719727 C18.03061128 42.14635636 17.12368973 40.16508262 16.21777344 38.18334961 C13.99615933 33.32845997 11.76173161 28.48019822 9.49708557 23.64520264 C8.64934635 21.83502892 7.80403044 20.02372096 6.95874023 18.21240234 C5.87966774 15.90191018 4.79600624 13.59355443 3.70727539 11.28759766 C2.98012329 9.7279126 2.98012329 9.7279126 2.23828125 8.13671875 C1.80555908 7.21592529 1.37283691 6.29513184 0.92700195 5.34643555 C0 3 0 3 0 0 Z " fill="#1C0839" transform="translate(191,68)"/>
<path d="M0 0 C3.8026029 2.0050088 5.61790841 3.42686262 8 7 C8.64847922 11.34822382 9.02965106 15.98822024 6.984375 19.984375 C3.83149396 23.82101338 1.15181322 25.8867069 -3.8125 26.375 C-8.18725067 26.24633086 -10.68358799 24.93078271 -14 22 C-16.910372 17.634442 -17.6506249 14.20499921 -17 9 C-12.85223264 1.29700348 -8.65429737 -1.37988797 0 0 Z " fill="#F2F0F3" transform="translate(229,259)"/>
<path d="M0 0 C2.31 0 4.62 0 7 0 C7.67305018 1.60149886 8.33822227 3.20631029 9 4.8125 C9.37125 5.70582031 9.7425 6.59914063 10.125 7.51953125 C11 10 11 10 11 13 C11.66 13 12.32 13 13 13 C13.103125 12.154375 13.20625 11.30875 13.3125 10.4375 C14.0828854 6.58557299 15.36274514 3.55924969 17 0 C19.31 0 21.62 0 24 0 C24.66 8.25 25.32 16.5 26 25 C24.02 25 22.04 25 20 25 C19.34 21.37 18.68 17.74 18 14 C16.68 17.63 15.36 21.26 14 25 C12.68 25 11.36 25 10 25 C8.68 21.7 7.36 18.4 6 15 C5.34 18.3 4.68 21.6 4 25 C2.02 25 0.04 25 -2 25 C-1.85756403 22.33311371 -1.71113422 19.66654233 -1.5625 17 C-1.50352539 15.88431641 -1.50352539 15.88431641 -1.44335938 14.74609375 C-1.16338273 9.79266082 -0.66489429 4.91686531 0 0 Z " fill="#EFEDF0" transform="translate(136,259)"/>
<path d="M0 0 C12.34075116 -0.49363005 12.34075116 -0.49363005 15.39453125 1.79296875 C17.70235044 4.96551824 17.48647132 7.17772535 17 11 C15.4375 12.6875 15.4375 12.6875 14 14 C14 18.17755109 17.42208139 21.02547852 20 24 C20 24.33 20 24.66 20 25 C16.875 25.4375 16.875 25.4375 13 25 C10.61317961 22.93418366 8.79950957 20.58391118 7 18 C6.67 20.31 6.34 22.62 6 25 C4.02 25 2.04 25 0 25 C0 16.75 0 8.5 0 0 Z " fill="#EEEBEF" transform="translate(240,259)"/>
<path d="M0 0 C1.98 0 3.96 0 6 0 C16 21.61702128 16 21.61702128 16 25 C14.02 25 12.04 25 10 25 C9.77570313 24.35546875 9.55140625 23.7109375 9.3203125 23.046875 C8.17110544 20.75611148 8.17110544 20.75611148 5.6171875 20.390625 C4.25980469 20.32101562 4.25980469 20.32101562 2.875 20.25 C1.96492188 20.19328125 1.05484375 20.1365625 0.1171875 20.078125 C-0.93082031 20.03945313 -0.93082031 20.03945313 -2 20 C-2.33 21.65 -2.66 23.3 -3 25 C-4.98 25 -6.96 25 -9 25 C-6.68860831 16.38296958 -3.39204534 8.23311977 0 0 Z " fill="#F2F1F2" transform="translate(68,259)"/>
<path d="M0 0 C1.98 0 3.96 0 6 0 C6.33 5.94 6.66 11.88 7 18 C11.47702364 19.06537205 11.47702364 19.06537205 14 19 C14 12.73 14 6.46 14 0 C15.98 0 17.96 0 20 0 C20.11667875 3.22886009 20.18740546 6.45717445 20.25 9.6875 C20.30027344 11.05551758 20.30027344 11.05551758 20.3515625 12.45117188 C20.41447027 16.77608078 20.41821932 19.29492511 18.171875 23.08203125 C15.32387014 25.5970859 13.39186368 25.96371633 9.625 26.3125 C5.39336784 25.94770412 3.92366442 25.00965455 1 22 C0.05862745 19.17588235 -0.11725382 17.47081968 -0.09765625 14.55078125 C-0.09443359 13.70322266 -0.09121094 12.85566406 -0.08789062 11.98242188 C-0.07951172 11.10134766 -0.07113281 10.22027344 -0.0625 9.3125 C-0.05798828 8.41982422 -0.05347656 7.52714844 -0.04882812 6.60742188 C-0.03704983 4.40488013 -0.02060164 2.20247401 0 0 Z " fill="#EFECF0" transform="translate(112,259)"/>
<path d="M0 0 C2.0625 -0.061875 4.125 -0.12375 6.25 -0.1875 C7.99023438 -0.23970703 7.99023438 -0.23970703 9.765625 -0.29296875 C13.26538256 0.02403827 14.59145425 0.48773697 17 3 C17.87281149 6.42890226 18.32922829 8.89259577 17.3125 12.3125 C15.66416489 14.431788 14.55376992 15.14874336 12 16 C8.75 16.125 8.75 16.125 6 16 C6 18.97 6 21.94 6 25 C4.02 25 2.04 25 0 25 C0 16.75 0 8.5 0 0 Z " fill="#F5F4F7" transform="translate(193,259)"/>
<path d="M0 0 C0.66 0.99 1.32 1.98 2 3 C1.01 4.485 1.01 4.485 0 6 C-3.625 6.1875 -3.625 6.1875 -7 6 C-6.29636171 9.26893492 -6.29636171 9.26893492 -3.125 10.5 C-2.09375 10.995 -1.0625 11.49 0 12 C1.875 13.3125 1.875 13.3125 3 15 C3.52640336 18.53442254 3.45822707 20.29356661 1.5 23.3125 C-1.86657009 25.58493481 -5.00560141 26.22232274 -9 26 C-11.55489513 25.23978638 -13.61760155 24.24083252 -16 23 C-15.34 21.35 -14.68 19.7 -14 18 C-10.7 18.33 -7.4 18.66 -4 19 C-4 18.34 -4 17.68 -4 17 C-5.72385506 15.70679876 -5.72385506 15.70679876 -7.875 14.5 C-10.25362486 13.10181191 -12.03792084 11.96207916 -14 10 C-14.4375 7.125 -14.4375 7.125 -14 4 C-10.3370145 -0.49011126 -5.50112818 -1.19965664 0 0 Z " fill="#EDE9F0" transform="translate(295,259)"/>
<path d="M0 0 C0.99 0.33 1.98 0.66 3 1 C2.67 2.65 2.34 4.3 2 6 C-0.64 6 -3.28 6 -6 6 C-6 6.66 -6 7.32 -6 8 C-5.04287109 8.50660156 -5.04287109 8.50660156 -4.06640625 9.0234375 C-3.24011719 9.46945312 -2.41382813 9.91546875 -1.5625 10.375 C-0.73878906 10.81585938 0.08492187 11.25671875 0.93359375 11.7109375 C3 13 3 13 4 15 C4.52981019 18.97357645 4.31881474 20.54170381 2 23.875 C-1.38632892 26.27364965 -3.03436573 26.61912935 -7.0625 26.375 C-9.80271804 25.84463522 -11.78568011 24.66073991 -14 23 C-13.34 21.35 -12.68 19.7 -12 18 C-9.03 18.33 -6.06 18.66 -3 19 C-4.13532585 15.59402245 -4.48116822 15.46547428 -7.5 13.9375 C-10.89821183 12.20357634 -10.89821183 12.20357634 -12 10 C-12.38080215 6.49662019 -12.40245078 4.63721374 -10.5 1.625 C-6.81284215 -0.7716526 -4.36579006 -0.34649127 0 0 Z " fill="#F1EFF2" transform="translate(186,259)"/>
<path d="M0 0 C5.94 0 11.88 0 18 0 C18 1.65 18 3.3 18 5 C16.02 5 14.04 5 12 5 C12 11.6 12 18.2 12 25 C10.02 25 8.04 25 6 25 C6 18.4 6 11.8 6 5 C4.02 5 2.04 5 0 5 C0 3.35 0 1.7 0 0 Z " fill="#F4F1F5" transform="translate(260,259)"/>
<path d="M0 0 C5.61 0 11.22 0 17 0 C17 1.65 17 3.3 17 5 C15.02 5 13.04 5 11 5 C11 11.6 11 18.2 11 25 C9.35 25 7.7 25 6 25 C6 18.4 6 11.8 6 5 C4.02 5 2.04 5 0 5 C0 3.35 0 1.7 0 0 Z " fill="#FBFAFB" transform="translate(84,259)"/>
<path d="M0 0 C3.4375 0.875 3.4375 0.875 5.4375 3.875 C5.76533949 7.48123435 5.84093025 10.00090113 4.3125 13.3125 C2.4375 14.875 2.4375 14.875 -0.5625 15.3125 C-3.89375894 14.8266914 -4.57898734 14.47908533 -6.5625 11.875 C-6.9609375 9.71875 -6.9609375 9.71875 -6.9375 7.375 C-6.94523438 6.6015625 -6.95296875 5.828125 -6.9609375 5.03125 C-6.14819495 0.63287856 -4.30026353 -0.15088644 0 0 Z " fill="#281054" transform="translate(225.5625,264.125)"/>
<path d="M0 0 C6.2004008 -0.35771543 6.2004008 -0.35771543 9.375 1.0625 C11.77859391 3.9283235 11.87085587 6.31939225 12 10 C11.20297288 12.68090941 10.51275631 13.63374549 8.25 15.25 C6 16 6 16 0 16 C0 12.04 0 8.08 0 4 C0.99 3.67 1.98 3.34 3 3 C3.33 2.34 3.66 1.68 4 1 C2.68 0.67 1.36 0.34 0 0 Z " fill="#EAE7EC" transform="translate(199,259)"/>
<path d="M0 0 C1.98 0 3.96 0 6 0 C6 8.25 6 16.5 6 25 C4.02 25 2.04 25 0 25 C0 16.75 0 8.5 0 0 Z " fill="#F1EFF3" transform="translate(103,259)"/>
<path d="M0 0 C2.64 0 5.28 0 8 0 C7.67 0.99 7.34 1.98 7 3 C6.34 3 5.68 3 5 3 C5.33 5.97 5.66 8.94 6 12 C5.34 12 4.68 12 4 12 C4 15.96 4 19.92 4 24 C2.68 24 1.36 24 0 24 C0 16.08 0 8.16 0 0 Z " fill="#F7F7F7" transform="translate(241,260)"/>
<path d="M0 0 C3.63 0 7.26 0 11 0 C10.01 3.3 9.02 6.6 8 10 C4.37 10 0.74 10 -3 10 C-2.46599103 6.08393425 -1.80330533 3.60661066 0 0 Z " fill="#F9F8F9" transform="translate(141,182)"/>
<path d="M0 0 C14.52 0 29.04 0 44 0 C41 10 41 10 39 14 C38.01 13.67 37.02 13.34 36 13 C36.75 5.375 36.75 5.375 39 2 C19.695 1.505 19.695 1.505 0 1 C0 0.67 0 0.34 0 0 Z " fill="#17092C" transform="translate(114,179)"/>
<path d="M0 0 C0.66 0.33 1.32 0.66 2 1 C1.52167725 1.47308594 1.04335449 1.94617187 0.55053711 2.43359375 C-1.6565534 4.61964406 -3.85953633 6.80979129 -6.0625 9 C-6.81466797 9.74378906 -7.56683594 10.48757812 -8.34179688 11.25390625 C-17.12276774 19.99686426 -25.76221584 29.22564555 -32 40 C-33.63362788 42.35858128 -35.31501827 44.67745762 -37 47 C-37 42.99971358 -35.13075598 40.66594426 -33 37.4375 C-32.58991699 36.81053223 -32.17983398 36.18356445 -31.75732422 35.53759766 C-22.96073587 22.26632639 -12.19235669 10.23555871 0 0 Z " fill="#281522" transform="translate(75,51)"/>
<path d="M0 0 C0.66 0 1.32 0 2 0 C1.375 2.3125 1.375 2.3125 0 6 C-0.26425781 6.928125 -0.52851563 7.85625 -0.80078125 8.8125 C-2.14885145 12.37029352 -3.16808586 14.41912646 -6 17 C-10.02192974 18.02369513 -14.06798758 17.98882358 -18.19506836 17.8527832 C-23.2698904 17.56935805 -23.2698904 17.56935805 -27.5859375 20.00390625 C-28.05257812 20.66261719 -28.51921875 21.32132813 -29 22 C-28.625 19.0625 -28.625 19.0625 -28 16 C-25.59940183 14.79970092 -24.10639351 14.88540257 -21.4296875 14.90234375 C-20.53378906 14.90556641 -19.63789062 14.90878906 -18.71484375 14.91210938 C-17.77769531 14.92048828 -16.84054688 14.92886719 -15.875 14.9375 C-14.93011719 14.94201172 -13.98523438 14.94652344 -13.01171875 14.95117188 C-10.67441613 14.96297643 -8.33723939 14.97944241 -6 15 C-5.80301514 14.39164307 -5.60603027 13.78328613 -5.40307617 13.15649414 C-5.13986572 12.35332764 -4.87665527 11.55016113 -4.60546875 10.72265625 C-4.34660889 9.92867432 -4.08774902 9.13469238 -3.82104492 8.31665039 C-2.79020774 5.4080527 -1.46163059 2.71445681 0 0 Z " fill="#201134" transform="translate(138,124)"/>
<path d="M0 0 C4.29 0 8.58 0 13 0 C12.01 0.33 11.02 0.66 10 1 C10.33 3.97 10.66 6.94 11 10 C9.35 10.33 7.7 10.66 6 11 C5.875 4.25 5.875 4.25 7 2 C4.03 1.505 4.03 1.505 1 1 C1 8.92 1 16.84 1 25 C0.67 25 0.34 25 0 25 C0 16.75 0 8.5 0 0 Z " fill="#E9E1F2" transform="translate(240,259)"/>
<path d="M0 0 C0.99 0.33 1.98 0.66 3 1 C3 3.97 3 6.94 3 10 C2.01 10.495 2.01 10.495 1 11 C1 10.34 1 9.68 1 9 C0.278125 8.731875 -0.44375 8.46375 -1.1875 8.1875 C-3.97590126 7.01017502 -6.44095724 5.60854116 -9 4 C-8.67 3.01 -8.34 2.02 -8 1 C-5.36 1.33 -2.72 1.66 0 2 C0 1.34 0 0.68 0 0 Z " fill="#301B4F" transform="translate(188,263)"/>
<path d="M0 0 C0.66 1.32 1.32 2.64 2 4 C-0.64 3.34 -3.28 2.68 -6 2 C-6.14308594 2.95519531 -6.14308594 2.95519531 -6.2890625 3.9296875 C-7.26697446 8.15297762 -8.80740185 12.08940641 -10.375 16.125 C-10.67921875 16.93582031 -10.9834375 17.74664062 -11.296875 18.58203125 C-11.59851562 19.36191406 -11.90015625 20.14179688 -12.2109375 20.9453125 C-12.48212402 21.65187988 -12.75331055 22.35844727 -13.03271484 23.08642578 C-14.0805474 25.15934642 -15.28075891 26.45612997 -17 28 C-18.32 26.35 -19.64 24.7 -21 23 C-18.525 23.99 -18.525 23.99 -16 25 C-15.85304688 24.35675781 -15.70609375 23.71351563 -15.5546875 23.05078125 C-13.6293073 15.29393343 -10.8525156 8.01823177 -7 1 C-4.53721199 -0.231394 -2.7204945 -0.07159196 0 0 Z " fill="#1E1027" transform="translate(74,257)"/>
<path d="M0 0 C4.455 0.99 4.455 0.99 9 2 C8.67 2.66 8.34 3.32 8 4 C8.99 4.99 9.98 5.98 11 7 C10.67 7.33 10.34 7.66 10 8 C8.0390625 7.94921875 8.0390625 7.94921875 5.625 7.6875 C4.83351563 7.60886719 4.04203125 7.53023438 3.2265625 7.44921875 C1 7 1 7 -2 5 C-1.34 3.35 -0.68 1.7 0 0 Z " fill="#E3DEE8" transform="translate(281,277)"/>
<path d="M0 0 C0.33 0 0.66 0 1 0 C1.33 4.62 1.66 9.24 2 14 C3.98 14 5.96 14 8 14 C8 14.33 8 14.66 8 15 C-0.57142857 15.14285714 -0.57142857 15.14285714 -4 14 C-3.36843005 8.94744036 -1.86540627 4.70406799 0 0 Z " fill="#3E2C58" transform="translate(154,270)"/>
<path d="M0 0 C1.35507148 4.06521445 0.17028741 5.35230591 -1.67578125 9.1640625 C-1.96100143 9.7567392 -2.24622162 10.34941589 -2.54008484 10.96005249 C-3.14495259 12.21134591 -3.75468696 13.46029677 -4.36889648 14.70703125 C-5.30968492 16.61927807 -6.23304186 18.53921676 -7.15429688 20.4609375 C-11.71741016 29.85870508 -11.71741016 29.85870508 -14 31 C-11.39847176 19.86846089 -5.40642583 9.95798946 0 0 Z " fill="#1D0E2E" transform="translate(155,89)"/>
<path d="M0 0 C8.58 0 17.16 0 26 0 C25.67 0.99 25.34 1.98 25 3 C16.75 2.67 8.5 2.34 0 2 C0 1.34 0 0.68 0 0 Z " fill="#1B0B2F" transform="translate(111,146)"/>
<path d="M0 0 C5.94 0 11.88 0 18 0 C18 1.65 18 3.3 18 5 C16.02 5 14.04 5 12 5 C12.99 4.01 13.98 3.02 15 2 C10.71 2 6.42 2 2 2 C2.33 2.99 2.66 3.98 3 5 C2.01 5 1.02 5 0 5 C0 3.35 0 1.7 0 0 Z " fill="#EFE6F7" transform="translate(260,259)"/>
<path d="M0 0 C2.35126075 3.52689113 3.04142487 6.73845277 4.0234375 10.8203125 C4.7815941 13.19993118 4.7815941 13.19993118 7.1015625 13.8046875 C8.04128906 13.90136719 8.04128906 13.90136719 9 14 C7.02 14 5.04 14 3 14 C3 13.01 3 12.02 3 11 C1.68 11.33 0.36 11.66 -1 12 C-0.67 8.04 -0.34 4.08 0 0 Z " fill="#281742" transform="translate(141,271)"/>
<path d="M0 0 C4.75 0.75 4.75 0.75 7 3 C7.125 6.125 7.125 6.125 7 9 C6.34 9 5.68 9 5 9 C4.67 8.01 4.34 7.02 4 6 C3.01 6.99 2.02 7.98 1 9 C0.67 6.03 0.34 3.06 0 0 Z " fill="#F8F6F8" transform="translate(250,260)"/>
<path d="M0 0 C2.31 0 4.62 0 7 0 C6.34 1.98 5.68 3.96 5 6 C2.69 6 0.38 6 -2 6 C-1.34 4.02 -0.68 2.04 0 0 Z " fill="#F0ECF1" transform="translate(128,190)"/>
<path d="M0 0 C0.33 0 0.66 0 1 0 C1 8.25 1 16.5 1 25 C0.67 25 0.34 25 0 25 C-0.33 22.03 -0.66 19.06 -1 16 C-1.33 16 -1.66 16 -2 16 C-2.20413361 10.26157749 -2.27141454 5.39460953 0 0 Z " fill="#412E61" transform="translate(239,259)"/>
<path d="M0 0 C10.23 0.33 20.46 0.66 31 1 C30.34 2.98 29.68 4.96 29 7 C28.67 7 28.34 7 28 7 C28 5.35 28 3.7 28 2 C18.76 2 9.52 2 0 2 C0 1.34 0 0.68 0 0 Z " fill="#312643" transform="translate(89,165)"/>
<path d="M0 0 C1.32 0 2.64 0 4 0 C4 1.98 4 3.96 4 6 C2.02 6.99 2.02 6.99 0 8 C-1.65 6.68 -3.3 5.36 -5 4 C-4.360625 3.71125 -3.72125 3.4225 -3.0625 3.125 C-0.84793921 2.17176549 -0.84793921 2.17176549 0 0 Z " fill="#F8F8F6" transform="translate(292,276)"/>
<path d="M0 0 C1.175625 0.0825 2.35125 0.165 3.5625 0.25 C4.2225 1.24 4.8825 2.23 5.5625 3.25 C4.5725 4.735 4.5725 4.735 3.5625 6.25 C0.125 5.4375 0.125 5.4375 -3.4375 4.25 C-3.7675 3.26 -4.0975 2.27 -4.4375 1.25 C-3.4375 0.25 -3.4375 0.25 0 0 Z " fill="#F5F2F6" transform="translate(291.4375,258.75)"/>
<path d="M0 0 C1.51056694 0.89914699 3.00825429 1.81996101 4.5 2.75 C5.3353125 3.26046875 6.170625 3.7709375 7.03125 4.296875 C8.00578125 5.13992188 8.00578125 5.13992188 9 6 C9 7.32 9 8.64 9 10 C7.68 10 6.36 10 5 10 C5 9.34 5 8.68 5 8 C4.01 7.67 3.02 7.34 2 7 C2.33 6.01 2.66 5.02 3 4 C2.01 3.67 1.02 3.34 0 3 C0 2.01 0 1.02 0 0 Z " fill="#2B1644" transform="translate(174,269)"/>
<path d="M0 0 C1.32 0 2.64 0 4 0 C3.36934243 3.21852831 2.21979305 5.50801069 0.4375 8.25 C-0.01753906 8.95640625 -0.47257813 9.6628125 -0.94140625 10.390625 C-1.29074219 10.92171875 -1.64007813 11.4528125 -2 12 C-3.15957207 8.52128379 -2.77456651 7.65780355 -1.5625 4.3125 C-1.13130859 3.10013672 -1.13130859 3.10013672 -0.69140625 1.86328125 C-0.46324219 1.24839844 -0.23507813 0.63351563 0 0 Z " fill="#DCD4E2" transform="translate(161,225)"/>
<path d="M0 0 C1.65 0 3.3 0 5 0 C5.28875 0.7425 5.5775 1.485 5.875 2.25 C6.81379336 4.5448282 7.89116553 6.78233105 9 9 C6.03 7.35 3.06 5.7 0 4 C0 2.68 0 1.36 0 0 Z " fill="#2C1A56" transform="translate(288,264)"/>
<path d="M0 0 C0.33 0 0.66 0 1 0 C1 8.25 1 16.5 1 25 C0.67 25 0.34 25 0 25 C-1.07541899 14.55307263 -1.07541899 14.55307263 -1 9.5 C-0.8155338 6.02635231 -0.8155338 6.02635231 -2 3 C-1.34 2.01 -0.68 1.02 0 0 Z " fill="#190732" transform="translate(191,259)"/>
<path d="M0 0 C4.55384615 -0.36923077 4.55384615 -0.36923077 6.8125 1.5 C7.204375 1.995 7.59625 2.49 8 3 C7.34 3 6.68 3 6 3 C6 3.66 6 4.32 6 5 C3.03 4.505 3.03 4.505 0 4 C0 2.68 0 1.36 0 0 Z " fill="#2A1846" transform="translate(180,264)"/>
<path d="M0 0 C-0.33 0.66 -0.66 1.32 -1 2 C-2.32 2 -3.64 2 -5 2 C-4.649375 2.763125 -4.29875 3.52625 -3.9375 4.3125 C-3 7 -3 7 -4 10 C-8.00390625 5.60546875 -8.00390625 5.60546875 -9 4 C-8.67 3.01 -8.34 2.02 -8 1 C-5.29120665 -0.35439668 -2.99066732 -0.06501451 0 0 Z " fill="#2F0B72" transform="translate(204,68)"/>
<path d="M0 0 C2.475 0.495 2.475 0.495 5 1 C4.67 2.65 4.34 4.3 4 6 C2.68 6 1.36 6 0 6 C0 4.02 0 2.04 0 0 Z " fill="#241046" transform="translate(246,264)"/>
<path d="M0 0 C2.475 0.495 2.475 0.495 5 1 C4.67 2.65 4.34 4.3 4 6 C2.68 6 1.36 6 0 6 C0 4.02 0 2.04 0 0 Z " fill="#1B0A34" transform="translate(199,264)"/>
<path d="M0 0 C2.64 0 5.28 0 8 0 C4.25 2 4.25 2 2 2 C2 4.31 2 6.62 2 9 C1.01 9.495 1.01 9.495 0 10 C0 6.7 0 3.4 0 0 Z " fill="#1B0938" transform="translate(199,275)"/>
<path d="M0 0 C3.3 0 6.6 0 10 0 C9.67 0.99 9.34 1.98 9 3 C8.071875 2.95875 7.14375 2.9175 6.1875 2.875 C2.84190281 2.72863661 2.84190281 2.72863661 0 5 C0 3.35 0 1.7 0 0 Z " fill="#2A2135" transform="translate(66,279)"/>
<path d="M0 0 C0.66 0 1.32 0 2 0 C2.83790789 1.78953185 3.67019396 3.58169695 4.5 5.375 C4.9640625 6.37273437 5.428125 7.37046875 5.90625 8.3984375 C7 11 7 11 7 13 C6.34 13 5.68 13 5 13 C4.15930585 11.39967863 3.32768495 9.79458829 2.5 8.1875 C1.80390625 6.84751953 1.80390625 6.84751953 1.09375 5.48046875 C0 3 0 3 0 0 Z " fill="#2C203D" transform="translate(219,185)"/>
<path d="M0 0 C3.35861695 1.43409972 5.35874939 3.19369321 7.75 5.9375 C8.36359375 6.62714844 8.9771875 7.31679687 9.609375 8.02734375 C11 10 11 10 11 13 C6.16716651 9.11995791 2.31417894 5.93008355 0 0 Z " fill="#2C0C68" transform="translate(212,90)"/>
<path d="M0 0 C3.82868919 1.45226142 5.2538953 3.33318013 7 7 C7 8.32 7 9.64 7 11 C6.34 11 5.68 11 5 11 C5 9.35 5 7.7 5 6 C4.360625 5.7525 3.72125 5.505 3.0625 5.25 C1 4 1 4 0.25 1.875 C0.1675 1.25625 0.085 0.6375 0 0 Z " fill="#270A5F" transform="translate(255,138)"/>
<path d="M0 0 C1.1725131 0.95117134 2.33787015 1.91117009 3.5 2.875 C4.47453125 3.67550781 4.47453125 3.67550781 5.46875 4.4921875 C5.9740625 4.98976563 6.479375 5.48734375 7 6 C7 6.66 7 7.32 7 8 C7.99 8.33 8.98 8.66 10 9 C9.67 9.66 9.34 10.32 9 11 C1.33257403 5.03416856 1.33257403 5.03416856 0 0 Z " fill="#2A0A63" transform="translate(238,119)"/>
<path d="M0 0 C0.99 0.33 1.98 0.66 3 1 C3 1.66 3 2.32 3 3 C3.99 3.33 4.98 3.66 6 4 C7.6875 6.0625 7.6875 6.0625 9 8 C8.67 8.66 8.34 9.32 8 10 C6.33333333 8.33333333 4.66666667 6.66666667 3 5 C2.401875 4.443125 1.80375 3.88625 1.1875 3.3125 C0 2 0 2 0 0 Z " fill="#2A0B65" transform="translate(229,109)"/>
<path d="M0 0 C1.875 0.1875 1.875 0.1875 4 1 C5.25 3.5625 5.25 3.5625 6 6 C5.01 6.495 5.01 6.495 4 7 C3.34 6.34 2.68 5.68 2 5 C1.34 5.66 0.68 6.32 0 7 C0 4.69 0 2.38 0 0 Z " fill="#2E1554" transform="translate(209,274)"/>
<path d="M0 0 C0.33 0 0.66 0 1 0 C1 3.96 1 7.92 1 12 C0.01 11.34 -0.98 10.68 -2 10 C-1.54177532 6.53058454 -1.10868317 3.32604951 0 0 Z " fill="#27183A" transform="translate(154,270)"/>
<path d="M0 0 C3.64775386 3.88309282 4.58525633 6.71201818 5 12 C2.43470546 10.71735273 2.33500137 9.77227651 1.375 7.125 C1.11460938 6.42632812 0.85421875 5.72765625 0.5859375 5.0078125 C0 3 0 3 0 0 Z " fill="#1C1127" transform="translate(76,262)"/>
<path d="M0 0 C0.66 0 1.32 0 2 0 C2.66 1.98 3.32 3.96 4 6 C2.35 6 0.7 6 -1 6 C-0.67 4.02 -0.34 2.04 0 0 Z " fill="#2E2638" transform="translate(70,268)"/>
<path d="M0 0 C2.64 0 5.28 0 8 0 C8 0.99 8 1.98 8 3 C5.36 3 2.72 3 0 3 C0 2.01 0 1.02 0 0 Z " fill="#D2CDDB" transform="translate(221,282)"/>
<path d="M0 0 C0.33 0 0.66 0 1 0 C1.36923077 7.50769231 1.36923077 7.50769231 -0.5 10 C-0.995 10.33 -1.49 10.66 -2 11 C-2.66 10.67 -3.32 10.34 -4 10 C-4 9.34 -4 8.68 -4 8 C-3.525625 7.566875 -3.05125 7.13375 -2.5625 6.6875 C-0.58616914 4.55306267 -0.38336764 2.83692053 0 0 Z " fill="#392853" transform="translate(190,275)"/>
<path d="M0 0 C0.66 0 1.32 0 2 0 C2.66 1.98 3.32 3.96 4 6 C3.01 6.495 3.01 6.495 2 7 C2 6.01 2 5.02 2 4 C1.34 4 0.68 4 0 4 C-0.33 4.99 -0.66 5.98 -1 7 C-1.33 6.34 -1.66 5.68 -2 5 C-1.0625 2.375 -1.0625 2.375 0 0 Z " fill="#2D233E" transform="translate(177,93)"/>
<path d="M0 0 C1.98 0.495 1.98 0.495 4 1 C4.33 2.32 4.66 3.64 5 5 C2.5625 4.625 2.5625 4.625 0 4 C-0.33 3.34 -0.66 2.68 -1 2 C-0.67 1.34 -0.34 0.68 0 0 Z " fill="#F4F0F4" transform="translate(281,277)"/>
<path d="M0 0 C2.64 0 5.28 0 8 0 C7.67 0.99 7.34 1.98 7 3 C5.68 3 4.36 3 3 3 C3 2.34 3 1.68 3 1 C2.34 1 1.68 1 1 1 C0.67 2.32 0.34 3.64 0 5 C0 3.35 0 1.7 0 0 Z " fill="#FEFEFD" transform="translate(241,260)"/>
<path d="M0 0 C1 3 1 3 0.22265625 4.82421875 C-0.8515625 6.54947917 -1.92578125 8.27473958 -3 10 C-4 7 -4 7 -2.625 3.875 C-1 1 -1 1 0 0 Z " fill="#1C0E2D" transform="translate(92,156)"/>
<path d="M0 0 C0.33 0 0.66 0 1 0 C1 1.65 1 3.3 1 5 C-0.8125 6.0625 -0.8125 6.0625 -3 7 C-3.99 6.67 -4.98 6.34 -6 6 C-5.195625 5.38125 -4.39125 4.7625 -3.5625 4.125 C-0.96125481 2.25835959 -0.96125481 2.25835959 0 0 Z " fill="#352259" transform="translate(236,277)"/>
<path d="M0 0 C0.33 1.32 0.66 2.64 1 4 C-0.65 5.32 -2.3 6.64 -4 8 C-3.40072174 4.64404172 -2.15377564 2.62198774 0 0 Z " fill="#1F1132" transform="translate(186,196)"/>
<path d="M0 0 C0.99 0 1.98 0 3 0 C3.33 1.65 3.66 3.3 4 5 C2.68 5 1.36 5 0 5 C0 3.35 0 1.7 0 0 Z " fill="#FDFCF9" transform="translate(135,279)"/>
<path d="M0 0 C0.33 0 0.66 0 1 0 C1.25 2.3125 1.25 2.3125 1 5 C-1 6.8125 -1 6.8125 -3 8 C-3 4.41465407 -1.97637955 2.92504174 0 0 Z " fill="#2F1C48" transform="translate(165,226)"/>
<path d="M0 0 C0.33 0 0.66 0 1 0 C1 1.65 1 3.3 1 5 C0.67 5 0.34 5 0 5 C0 3.35 0 1.7 0 0 Z " fill="#FEC000" transform="translate(357,205)"/>
<path d="M0 0 C0.33 0 0.66 0 1 0 C1 1.65 1 3.3 1 5 C0.67 5 0.34 5 0 5 C0 3.35 0 1.7 0 0 Z " fill="#FFC300" transform="translate(0,205)"/>
<path d="M0 0 C0.33 0 0.66 0 1 0 C1 1.65 1 3.3 1 5 C0.67 5 0.34 5 0 5 C0 3.35 0 1.7 0 0 Z " fill="#FFC100" transform="translate(357,144)"/>
<path d="M0 0 C0.33 0 0.66 0 1 0 C1 1.65 1 3.3 1 5 C0.67 5 0.34 5 0 5 C0 3.35 0 1.7 0 0 Z " fill="#FEC200" transform="translate(0,144)"/>
<path d="M0 0 C4 1 4 1 4 1 Z " fill="#FFC100" transform="translate(213,354)"/>
<path d="M0 0 C4 1 4 1 4 1 Z " fill="#FFC100" transform="translate(141,354)"/>
<path d="M0 0 C1 4 1 4 1 4 Z " fill="#FFD324" transform="translate(2,216)"/>
<path d="M0 0 C1 4 1 4 1 4 Z " fill="#FFC80D" transform="translate(356,211)"/>
<path d="M0 0 C1 4 1 4 1 4 Z " fill="#FFC911" transform="translate(1,211)"/>
<path d="M0 0 C4 1 4 1 4 1 Z " fill="#FFC100" transform="translate(136,0)"/>
<path d="M0 0 C3 1 3 1 3 1 Z " fill="#FECB15" transform="translate(218,353)"/>
<path d="M0 0 C3 1 3 1 3 1 Z " fill="#FFCE17" transform="translate(137,353)"/>
<path d="M0 0 C3 1 3 1 3 1 Z " fill="#FFCA16" transform="translate(133,352)"/>
<path d="" fill="#FFCE17" transform="translate(0,0)"/>
<path d="" fill="#FFC205" transform="translate(0,0)"/>
<path d="" fill="#FEC405" transform="translate(0,0)"/>
<path d="" fill="#FECC17" transform="translate(0,0)"/>
<path d="" fill="#FFCD18" transform="translate(0,0)"/>
<path d="" fill="#FECC16" transform="translate(0,0)"/>
<path d="M0 0 C3 1 3 1 3 1 Z " fill="#FFCD17" transform="translate(222,1)"/>
<path d="M0 0 C3 1 3 1 3 1 Z " fill="#FECC18" transform="translate(133,1)"/>
<path d="M0 0 C3 1 3 1 3 1 Z " fill="#FFC000" transform="translate(218,0)"/>
<path d="M0 0 C2 1 2 1 2 1 Z " fill="#FFC509" transform="translate(222,352)"/>
<path d="M0 0 C2 1 2 1 2 1 Z " fill="#FFD020" transform="translate(227,351)"/>
<path d="M0 0 C2 1 2 1 2 1 Z " fill="#FFD222" transform="translate(230,350)"/>
<path d="M0 0 C2 1 2 1 2 1 Z " fill="#FCC108" transform="translate(126,350)"/>
<path d="M0 0 C2 1 2 1 2 1 Z " fill="#FFC408" transform="translate(233,349)"/>
<path d="M0 0 C2 1 2 1 2 1 Z " fill="#FEC409" transform="translate(123,349)"/>
<path d="M0 0 C2 1 2 1 2 1 Z " fill="#FFC308" transform="translate(236,348)"/>
<path d="M0 0 C2 1 2 1 2 1 Z " fill="#FFC407" transform="translate(120,348)"/>
<path d="M0 0 C2 1 2 1 2 1 Z " fill="#FFDC34" transform="translate(239,347)"/>
<path d="M0 0 C2 1 2 1 2 1 Z " fill="#FFC205" transform="translate(242,346)"/>
<path d="M0 0 C2 1 2 1 2 1 Z " fill="#FFC307" transform="translate(244,345)"/>
<path d="M0 0 C2 1 2 1 2 1 Z " fill="#FFC408" transform="translate(112,345)"/>
<path d="M0 0 C2 1 2 1 2 1 Z " fill="#FFC40A" transform="translate(249,343)"/>
<path d="M0 0 C2 1 2 1 2 1 Z " fill="#FFD021" transform="translate(251,342)"/>
<path d="M0 0 C2 1 2 1 2 1 Z " fill="#FFD122" transform="translate(263,336)"/>
<path d="M0 0 C2 1 2 1 2 1 Z " fill="#FFD323" transform="translate(265,335)"/>
<path d="M0 0 C2 1 2 1 2 1 Z " fill="#FFD120" transform="translate(267,334)"/>
<path d="M0 0 C2 1 2 1 2 1 Z " fill="#FFCE1E" transform="translate(89,334)"/>
<path d="M0 0 C2 1 2 1 2 1 Z " fill="#FFC100" transform="translate(294,315)"/>
<path d="" fill="#FFD122" transform="translate(0,0)"/>
<path d="" fill="#FFC308" transform="translate(0,0)"/>
<path d="" fill="#FFC408" transform="translate(0,0)"/>
<path d="" fill="#FFD020" transform="translate(0,0)"/>
<path d="" fill="#FFCF1D" transform="translate(0,0)"/>
<path d="" fill="#FFC308" transform="translate(0,0)"/>
<path d="" fill="#FFC408" transform="translate(0,0)"/>
<path d="" fill="#FFC209" transform="translate(0,0)"/>
<path d="" fill="#FFC309" transform="translate(0,0)"/>
<path d="" fill="#FFD020" transform="translate(0,0)"/>
<path d="" fill="#FFD022" transform="translate(0,0)"/>
<path d="" fill="#FFCF21" transform="translate(0,0)"/>
<path d="" fill="#FEC509" transform="translate(0,0)"/>
<path d="" fill="#FEC60C" transform="translate(0,0)"/>
<path d="" fill="#FEC207" transform="translate(0,0)"/>
<path d="" fill="#FEC407" transform="translate(0,0)"/>
<path d="" fill="#FED022" transform="translate(0,0)"/>
<path d="" fill="#FFC309" transform="translate(0,0)"/>
<path d="" fill="#FEC505" transform="translate(0,0)"/>
<path d="" fill="#FFC60B" transform="translate(0,0)"/>
<path d="" fill="#FED01B" transform="translate(0,0)"/>
<path d="" fill="#FFC408" transform="translate(0,0)"/>
<path d="" fill="#FED222" transform="translate(0,0)"/>
<path d="" fill="#FECF21" transform="translate(0,0)"/>
<path d="" fill="#FFCF1F" transform="translate(0,0)"/>
<path d="" fill="#FFD123" transform="translate(0,0)"/>
<path d="" fill="#FFD221" transform="translate(0,0)"/>
<path d="" fill="#FEC308" transform="translate(0,0)"/>
<path d="" fill="#FFBF00" transform="translate(0,0)"/>
<path d="" fill="#FEC100" transform="translate(0,0)"/>
<path d="M0 0 C2 1 2 1 2 1 Z " fill="#FFD01F" transform="translate(267,19)"/>
<path d="M0 0 C2 1 2 1 2 1 Z " fill="#FEC619" transform="translate(91,18)"/>
<path d="M0 0 C2 1 2 1 2 1 Z " fill="#FFCF1F" transform="translate(249,10)"/>
<path d="M0 0 C2 1 2 1 2 1 Z " fill="#FEC309" transform="translate(107,10)"/>
<path d="M0 0 C2 1 2 1 2 1 Z " fill="#FEC306" transform="translate(247,9)"/>
<path d="M0 0 C2 1 2 1 2 1 Z " fill="#FEC000" transform="translate(112,8)"/>
<path d="M0 0 C2 1 2 1 2 1 Z " fill="#FFC509" transform="translate(236,5)"/>
<path d="M0 0 C2 1 2 1 2 1 Z " fill="#FEC60A" transform="translate(120,5)"/>
<path d="M0 0 C2 1 2 1 2 1 Z " fill="#FED422" transform="translate(233,4)"/>
<path d="M0 0 C2 1 2 1 2 1 Z " fill="#FED022" transform="translate(123,4)"/>
<path d="M0 0 C2 1 2 1 2 1 Z " fill="#FFD022" transform="translate(230,3)"/>
<path d="M0 0 C2 1 2 1 2 1 Z " fill="#FED325" transform="translate(126,3)"/>
<path d="M0 0 C2 1 2 1 2 1 Z " fill="#FFD121" transform="translate(227,2)"/>
<path d="M0 0 C2 1 2 1 2 1 Z " fill="#FEC407" transform="translate(130,2)"/>
<path d="" fill="#FFC40E" transform="translate(0,0)"/>
<path d="" fill="#FFC40A" transform="translate(0,0)"/>
<path d="" fill="#FFC200" transform="translate(0,0)"/>
<path d="" fill="#FFC100" transform="translate(0,0)"/>
<path d="" fill="#FFC200" transform="translate(0,0)"/>
<path d="" fill="#FFC208" transform="translate(0,0)"/>
<path d="" fill="#FFC510" transform="translate(0,0)"/>
<path d="" fill="#FFDE34" transform="translate(0,0)"/>
<path d="" fill="#FFC612" transform="translate(0,0)"/>
<path d="" fill="#FFC610" transform="translate(0,0)"/>
<path d="" fill="#FFC100" transform="translate(0,0)"/>
<path d="" fill="#FFC610" transform="translate(0,0)"/>
<path d="" fill="#FFC100" transform="translate(0,0)"/>
<path d="" fill="#FFC810" transform="translate(0,0)"/>
<path d="" fill="#FFC200" transform="translate(0,0)"/>
<path d="" fill="#FDC200" transform="translate(0,0)"/>
<path d="" fill="#FFC100" transform="translate(0,0)"/>
<path d="" fill="#FFDC34" transform="translate(0,0)"/>
<path d="" fill="#FFDD34" transform="translate(0,0)"/>
<path d="" fill="#FFCB16" transform="translate(0,0)"/>
<path d="" fill="#FFC40C" transform="translate(0,0)"/>
<path d="" fill="#FFC916" transform="translate(0,0)"/>
<path d="" fill="#FFC50E" transform="translate(0,0)"/>
<path d="" fill="#FFC204" transform="translate(0,0)"/>
<path d="" fill="#FFC510" transform="translate(0,0)"/>
<path d="" fill="#FFC206" transform="translate(0,0)"/>
<path d="" fill="#FFDC34" transform="translate(0,0)"/>
<path d="" fill="#FFC514" transform="translate(0,0)"/>
<path d="" fill="#FFD62C" transform="translate(0,0)"/>
<path d="" fill="#FFC300" transform="translate(0,0)"/>
<path d="" fill="#FBC000" transform="translate(0,0)"/>
<path d="" fill="#FFC510" transform="translate(0,0)"/>
<path d="" fill="#FFC60E" transform="translate(0,0)"/>
<path d="" fill="#FFC100" transform="translate(0,0)"/>
<path d="" fill="#FBBE00" transform="translate(0,0)"/>
<path d="" fill="#FDC100" transform="translate(0,0)"/>
<path d="" fill="#FFC610" transform="translate(0,0)"/>
<path d="" fill="#FFC300" transform="translate(0,0)"/>
<path d="" fill="#FFC200" transform="translate(0,0)"/>
<path d="" fill="#FFC40E" transform="translate(0,0)"/>
<path d="" fill="#FFC200" transform="translate(0,0)"/>
<path d="" fill="#FFC000" transform="translate(0,0)"/>
<path d="" fill="#FFC40E" transform="translate(0,0)"/>
<path d="" fill="#FFC000" transform="translate(0,0)"/>
<path d="" fill="#FFC100" transform="translate(0,0)"/>
<path d="" fill="#FEC000" transform="translate(0,0)"/>
<path d="" fill="#FFC100" transform="translate(0,0)"/>
<path d="" fill="#FCBE00" transform="translate(0,0)"/>
<path d="" fill="#FFC100" transform="translate(0,0)"/>
<path d="" fill="#FCBE00" transform="translate(0,0)"/>
<path d="" fill="#FDC100" transform="translate(0,0)"/>
<path d="" fill="#FEC000" transform="translate(0,0)"/>
<path d="" fill="#FEC200" transform="translate(0,0)"/>
<path d="" fill="#FFC200" transform="translate(0,0)"/>
<path d="" fill="#FEC200" transform="translate(0,0)"/>
<path d="" fill="#FFC200" transform="translate(0,0)"/>
<path d="" fill="#FEC610" transform="translate(0,0)"/>
<path d="" fill="#FDC400" transform="translate(0,0)"/>
<path d="" fill="#FEC610" transform="translate(0,0)"/>
<path d="" fill="#FFDE34" transform="translate(0,0)"/>
<path d="" fill="#FEC200" transform="translate(0,0)"/>
<path d="" fill="#FFDC30" transform="translate(0,0)"/>
<path d="" fill="#FEC000" transform="translate(0,0)"/>
<path d="" fill="#FFC400" transform="translate(0,0)"/>
<path d="" fill="#FFBF00" transform="translate(0,0)"/>
<path d="" fill="#FFC300" transform="translate(0,0)"/>
<path d="" fill="#FFC100" transform="translate(0,0)"/>
<path d="" fill="#FFC100" transform="translate(0,0)"/>
<path d="" fill="#FEC000" transform="translate(0,0)"/>
<path d="" fill="#FFC100" transform="translate(0,0)"/>
<path d="" fill="#FEC000" transform="translate(0,0)"/>
<path d="" fill="#FFC100" transform="translate(0,0)"/>
<path d="" fill="#FEC000" transform="translate(0,0)"/>
<path d="" fill="#FDC100" transform="translate(0,0)"/>
<path d="" fill="#FEC000" transform="translate(0,0)"/>
<path d="" fill="#FFC714" transform="translate(0,0)"/>
<path d="" fill="#FEC610" transform="translate(0,0)"/>
<path d="" fill="#FFBF00" transform="translate(0,0)"/>
<path d="" fill="#FEC610" transform="translate(0,0)"/>
<path d="" fill="#FFC300" transform="translate(0,0)"/>
<path d="" fill="#FEC000" transform="translate(0,0)"/>
<path d="" fill="#FDBB00" transform="translate(0,0)"/>
<path d="" fill="#FFC300" transform="translate(0,0)"/>
<path d="" fill="#FEBE00" transform="translate(0,0)"/>
<path d="" fill="#FFC712" transform="translate(0,0)"/>
<path d="" fill="#FEC200" transform="translate(0,0)"/>
<path d="" fill="#FFC100" transform="translate(0,0)"/>
<path d="" fill="#FEC200" transform="translate(0,0)"/>
<path d="" fill="#FEC200" transform="translate(0,0)"/>
<path d="" fill="#FFC100" transform="translate(0,0)"/>
<path d="" fill="#FEC400" transform="translate(0,0)"/>
<path d="" fill="#FFC300" transform="translate(0,0)"/>
<path d="" fill="#FEC610" transform="translate(0,0)"/>
<path d="" fill="#FFC300" transform="translate(0,0)"/>
<path d="" fill="#FEC200" transform="translate(0,0)"/>
<path d="" fill="#FFC300" transform="translate(0,0)"/>
<path d="" fill="#FEC200" transform="translate(0,0)"/>
<path d="" fill="#FDC100" transform="translate(0,0)"/>
<path d="" fill="#FEC200" transform="translate(0,0)"/>
<path d="" fill="#FEC200" transform="translate(0,0)"/>
<path d="" fill="#FFC410" transform="translate(0,0)"/>
<path d="" fill="#FEC000" transform="translate(0,0)"/>
<path d="" fill="#FFC200" transform="translate(0,0)"/>
<path d="" fill="#FEC000" transform="translate(0,0)"/>
<path d="" fill="#FFDA30" transform="translate(0,0)"/>
<path d="" fill="#FEC404" transform="translate(0,0)"/>
<path d="" fill="#FFDA30" transform="translate(0,0)"/>
<path d="" fill="#FEC200" transform="translate(0,0)"/>
<path d="" fill="#FFC614" transform="translate(0,0)"/>
<path d="" fill="#FEC40A" transform="translate(0,0)"/>
<path d="" fill="#FFC810" transform="translate(0,0)"/>
<path d="" fill="#FFC710" transform="translate(0,0)"/>
<path d="" fill="#FFCA16" transform="translate(0,0)"/>
<path d="" fill="#FFC812" transform="translate(0,0)"/>
<path d="" fill="#FFC60E" transform="translate(0,0)"/>
<path d="" fill="#FFCC16" transform="translate(0,0)"/>
<path d="" fill="#FFDC34" transform="translate(0,0)"/>
<path d="" fill="#FFC712" transform="translate(0,0)"/>
<path d="" fill="#FFDC34" transform="translate(0,0)"/>
<path d="" fill="#FFC200" transform="translate(0,0)"/>
<path d="" fill="#FFC100" transform="translate(0,0)"/>
<path d="" fill="#FFC200" transform="translate(0,0)"/>
<path d="" fill="#FDC100" transform="translate(0,0)"/>
<path d="" fill="#FFC100" transform="translate(0,0)"/>
<path d="" fill="#FFBF00" transform="translate(0,0)"/>
<path d="" fill="#FFC100" transform="translate(0,0)"/>
<path d="" fill="#FFC100" transform="translate(0,0)"/>
<path d="" fill="#FEC200" transform="translate(0,0)"/>
<path d="" fill="#FFC100" transform="translate(0,0)"/>
<path d="" fill="#FFC200" transform="translate(0,0)"/>
<path d="" fill="#FFC70E" transform="translate(0,0)"/>
<path d="" fill="#FFC40E" transform="translate(0,0)"/>
<path d="" fill="#FFCB18" transform="translate(0,0)"/>
<path d="" fill="#FFC100" transform="translate(0,0)"/>
<path d="" fill="#FFC510" transform="translate(0,0)"/>
<path d="" fill="#FFC710" transform="translate(0,0)"/>
<path d="" fill="#FEC200" transform="translate(0,0)"/>
<path d="" fill="#FFC70C" transform="translate(0,0)"/>
<path d="" fill="#FFC30C" transform="translate(0,0)"/>
<path d="" fill="#FFC710" transform="translate(0,0)"/>
<path d="" fill="#FEC612" transform="translate(0,0)"/>
<path d="" fill="#FFD326" transform="translate(0,0)"/>
<path d="" fill="#FEC510" transform="translate(0,0)"/>
<path d="" fill="#FFC200" transform="translate(0,0)"/>
<path d="" fill="#FEC912" transform="translate(0,0)"/>
<path d="" fill="#FFDE34" transform="translate(0,0)"/>
<path d="" fill="#FFC100" transform="translate(0,0)"/>
<path d="" fill="#FFDB34" transform="translate(0,0)"/>
<path d="" fill="#FEC612" transform="translate(0,0)"/>
<path d="" fill="#FFC812" transform="translate(0,0)"/>
<path d="" fill="#FEC000" transform="translate(0,0)"/>
<path d="" fill="#FEC000" transform="translate(0,0)"/>
<path d="" fill="#FFC50E" transform="translate(0,0)"/>
<path d="" fill="#FEC200" transform="translate(0,0)"/>
<path d="" fill="#FFC612" transform="translate(0,0)"/>
<path d="" fill="#FFC100" transform="translate(0,0)"/>
<path d="" fill="#FEC712" transform="translate(0,0)"/>
<path d="" fill="#FFC300" transform="translate(0,0)"/>
<path d="" fill="#FEC200" transform="translate(0,0)"/>
<path d="" fill="#FEC200" transform="translate(0,0)"/>
<path d="" fill="#FEC616" transform="translate(0,0)"/>
<path d="" fill="#FFDE34" transform="translate(0,0)"/>
<path d="" fill="#FEC20C" transform="translate(0,0)"/>
<path d="" fill="#FFC50E" transform="translate(0,0)"/>
<path d="" fill="#FEC612" transform="translate(0,0)"/>
<path d="" fill="#FEC512" transform="translate(0,0)"/>
<path d="" fill="#FEC610" transform="translate(0,0)"/>
<path d="" fill="#FEC500" transform="translate(0,0)"/>
<path d="" fill="#FFC300" transform="translate(0,0)"/>
<path d="" fill="#FFC308" transform="translate(0,0)"/>
<path d="" fill="#FFC710" transform="translate(0,0)"/>
<path d="" fill="#FFC200" transform="translate(0,0)"/>
<path d="" fill="#FFC300" transform="translate(0,0)"/>
<path d="" fill="#FFC610" transform="translate(0,0)"/>
<path d="" fill="#FFC100" transform="translate(0,0)"/>
<path d="" fill="#FEC000" transform="translate(0,0)"/>
<path d="" fill="#FFC100" transform="translate(0,0)"/>
<path d="" fill="#FEC200" transform="translate(0,0)"/>
<path d="" fill="#FFBF00" transform="translate(0,0)"/>
<path d="" fill="#FEC200" transform="translate(0,0)"/>
<path d="" fill="#FFC100" transform="translate(0,0)"/>
<path d="" fill="#FEC200" transform="translate(0,0)"/>
<path d="" fill="#FFC100" transform="translate(0,0)"/>
<path d="" fill="#FEC200" transform="translate(0,0)"/>
<path d="" fill="#FFC500" transform="translate(0,0)"/>
<path d="" fill="#FEC200" transform="translate(0,0)"/>
<path d="" fill="#FFC100" transform="translate(0,0)"/>
<path d="" fill="#FEC200" transform="translate(0,0)"/>
<path d="" fill="#FFC100" transform="translate(0,0)"/>
<path d="" fill="#FEC200" transform="translate(0,0)"/>
<path d="" fill="#FFDB30" transform="translate(0,0)"/>
<path d="" fill="#FEC200" transform="translate(0,0)"/>
<path d="" fill="#FFDD32" transform="translate(0,0)"/>
<path d="" fill="#FEC000" transform="translate(0,0)"/>
<path d="" fill="#FFC100" transform="translate(0,0)"/>
<path d="" fill="#FEC204" transform="translate(0,0)"/>
<path d="" fill="#FFC100" transform="translate(0,0)"/>
<path d="" fill="#FEC200" transform="translate(0,0)"/>
<path d="" fill="#FFC100" transform="translate(0,0)"/>
<path d="" fill="#FEC812" transform="translate(0,0)"/>
<path d="" fill="#FFC712" transform="translate(0,0)"/>
<path d="" fill="#FEC40C" transform="translate(0,0)"/>
<path d="" fill="#FFC50E" transform="translate(0,0)"/>
<path d="" fill="#FEC000" transform="translate(0,0)"/>
<path d="" fill="#FFBF00" transform="translate(0,0)"/>
<path d="" fill="#FEC400" transform="translate(0,0)"/>
<path d="" fill="#FFBF00" transform="translate(0,0)"/>
<path d="" fill="#FFC300" transform="translate(0,0)"/>
<path d="" fill="#FFBF00" transform="translate(0,0)"/>
<path d="" fill="#FFBF00" transform="translate(0,0)"/>
<path d="" fill="#FFBF00" transform="translate(0,0)"/>
<path d="" fill="#FEC200" transform="translate(0,0)"/>
<path d="" fill="#FBBB00" transform="translate(0,0)"/>
<path d="" fill="#FEC400" transform="translate(0,0)"/>
<path d="" fill="#FFC302" transform="translate(0,0)"/>
<path d="" fill="#FEC400" transform="translate(0,0)"/>
<path d="" fill="#FFC510" transform="translate(0,0)"/>
<path d="" fill="#FEC40A" transform="translate(0,0)"/>
<path d="" fill="#FFC100" transform="translate(0,0)"/>
<path d="" fill="#FEC000" transform="translate(0,0)"/>
<path d="" fill="#FFC100" transform="translate(0,0)"/>
<path d="" fill="#FEC000" transform="translate(0,0)"/>
<path d="" fill="#FFC100" transform="translate(0,0)"/>
<path d="" fill="#FFC100" transform="translate(0,0)"/>
<path d="" fill="#FEC000" transform="translate(0,0)"/>
<path d="" fill="#FFC50E" transform="translate(0,0)"/>
<path d="" fill="#FEC000" transform="translate(0,0)"/>
<path d="" fill="#FFC100" transform="translate(0,0)"/>
<path d="" fill="#FEC000" transform="translate(0,0)"/>
<path d="" fill="#FFC100" transform="translate(0,0)"/>
<path d="" fill="#FEC000" transform="translate(0,0)"/>
<path d="" fill="#FFC100" transform="translate(0,0)"/>
<path d="" fill="#FEC200" transform="translate(0,0)"/>
<path d="" fill="#FFC50E" transform="translate(0,0)"/>
<path d="" fill="#FEC000" transform="translate(0,0)"/>
<path d="" fill="#FFC100" transform="translate(0,0)"/>
<path d="" fill="#FEC000" transform="translate(0,0)"/>
<path d="" fill="#FEC600" transform="translate(0,0)"/>
<path d="" fill="#FFC610" transform="translate(0,0)"/>
<path d="" fill="#FEC610" transform="translate(0,0)"/>
<path d="" fill="#FFC100" transform="translate(0,0)"/>
<path d="" fill="#FEC000" transform="translate(0,0)"/>
<path d="" fill="#FFC80E" transform="translate(0,0)"/>
<path d="" fill="#FEC000" transform="translate(0,0)"/>
<path d="" fill="#FFC100" transform="translate(0,0)"/>
<path d="" fill="#FEC004" transform="translate(0,0)"/>
<path d="" fill="#FFC102" transform="translate(0,0)"/>
<path d="" fill="#FEC200" transform="translate(0,0)"/>
<path d="" fill="#FFC508" transform="translate(0,0)"/>
<path d="" fill="#FEC200" transform="translate(0,0)"/>
<path d="" fill="#FFC50E" transform="translate(0,0)"/>
<path d="" fill="#FEC200" transform="translate(0,0)"/>
<path d="" fill="#FFC914" transform="translate(0,0)"/>
<path d="" fill="#FEC610" transform="translate(0,0)"/>
<path d="" fill="#FFD222" transform="translate(0,0)"/>
<path d="" fill="#FEC20C" transform="translate(0,0)"/>
<path d="" fill="#FEC812" transform="translate(0,0)"/>
<path d="" fill="#FEE034" transform="translate(0,0)"/>
<path d="" fill="#FFC300" transform="translate(0,0)"/>
<path d="" fill="#FEC000" transform="translate(0,0)"/>
<path d="" fill="#FFC200" transform="translate(0,0)"/>
<path d="" fill="#FEC200" transform="translate(0,0)"/>
<path d="" fill="#FFC100" transform="translate(0,0)"/>
<path d="" fill="#FEC000" transform="translate(0,0)"/>
<path d="" fill="#FDC300" transform="translate(0,0)"/>
<path d="" fill="#FEC000" transform="translate(0,0)"/>
<path d="" fill="#FEC200" transform="translate(0,0)"/>
<path d="" fill="#FEC000" transform="translate(0,0)"/>
<path d="" fill="#FEC200" transform="translate(0,0)"/>
<path d="" fill="#FEC206" transform="translate(0,0)"/>
<path d="" fill="#FFC40E" transform="translate(0,0)"/>
<path d="" fill="#FEC200" transform="translate(0,0)"/>
<path d="" fill="#FEDE36" transform="translate(0,0)"/>
<path d="" fill="#FFC000" transform="translate(0,0)"/>
<path d="" fill="#FFC714" transform="translate(0,0)"/>
<path d="" fill="#FEC818" transform="translate(0,0)"/>
<path d="" fill="#FFC814" transform="translate(0,0)"/>
<path d="" fill="#FEC000" transform="translate(0,0)"/>
</svg>
